HIERARCHY
ROOT Hips
{
	OFFSET 0.000000 0.000000 0.000000
	CHANNELS 6 Xposition Yposition Zposition Xrotation Yrotation Zrotation
	JOINT LeftUpLeg_virtual
	{
		OFFSET 0.000000 0.000000 0.000000
		CHANNELS 3 Xrotation Yrotation Zrotation
		JOINT LeftUpLeg
		{
			OFFSET 15.427100 -6.655098 0.678600
			CHANNELS 3 Xrotation Yrotation Zrotation
			JOINT LeftLeg
			{
				OFFSET 4.081073 -39.591068 13.024000
				CHANNELS 3 Xrotation Yrotation Zrotation
				JOINT LeftFoot
				{
					OFFSET -4.081074 -37.707932 -15.979700
					CHANNELS 3 Xrotation Yrotation Zrotation
					JOINT LeftToeBase
					{
						OFFSET 5.346399 -15.068900 20.645000
						CHANNELS 3 Xrotation Yrotation Zrotation
						JOINT LeftToe_End
						{
							OFFSET 2.754700 0.931300 11.300900
							CHANNELS 3 Xrotation Yrotation Zrotation
							End Site
							{
								OFFSET 0 0 0
							}
						}
					}
				}
			}
		}
	}
	JOINT RightUpLeg_virtual
	{
		OFFSET 0.000000 0.000000 0.000000
		CHANNELS 3 Xrotation Yrotation Zrotation
		JOINT RightUpLeg
		{
			OFFSET -15.569500 -6.655098 0.678600
			CHANNELS 3 Xrotation Yrotation Zrotation
			JOINT RightLeg
			{
				OFFSET -4.081825 -39.591045 13.023800
				CHANNELS 3 Xrotation Yrotation Zrotation
				JOINT RightFoot
				{
					OFFSET 4.081824 -37.707954 -15.979600
					CHANNELS 3 Xrotation Yrotation Zrotation
					JOINT RightToeBase
					{
						OFFSET -5.346400 -15.068900 20.645000
						CHANNELS 3 Xrotation Yrotation Zrotation
						JOINT RightToe_End
						{
							OFFSET -2.754700 0.931300 11.300900
							CHANNELS 3 Xrotation Yrotation Zrotation
							End Site
							{
								OFFSET 0 0 0
							}
						}
					}
				}
			}
		}
	}
	JOINT Spine_virtual
	{
		OFFSET 0.000000 0.000000 0.000000
		CHANNELS 3 Xrotation Yrotation Zrotation
		JOINT Spine
		{
			OFFSET -0.279200 12.230698 -2.892100
			CHANNELS 3 Xrotation Yrotation Zrotation
			JOINT Spine1
			{
				OFFSET -0.232667 10.192268 -1.242267
				CHANNELS 3 Xrotation Yrotation Zrotation
				JOINT Spine1_split
				{
					OFFSET -0.232667 10.192268 -1.242267
					CHANNELS 3 Xrotation Yrotation Zrotation
					JOINT Spine2
					{
						OFFSET -0.232667 10.192268 -1.242267
						CHANNELS 3 Xrotation Yrotation Zrotation
						JOINT Neck_virtual
						{
							OFFSET 0.000000 0.000000 0.000000
							CHANNELS 3 Xrotation Yrotation Zrotation
							JOINT Neck
							{
								OFFSET -0.418800 17.814194 8.416900
								CHANNELS 3 Xrotation Yrotation Zrotation
								JOINT Head
								{
									OFFSET 0.000000 7.031097 3.806800
									CHANNELS 3 Xrotation Yrotation Zrotation
									JOINT HeadTop_End
									{
										OFFSET 0.000000 24.646606 12.978600
										CHANNELS 3 Xrotation Yrotation Zrotation
										End Site
										{
											OFFSET 0 0 0
										}
									}
								}
							}
						}
						JOINT LeftShoulder_virtual
						{
							OFFSET 0.000000 0.000000 0.000000
							CHANNELS 3 Xrotation Yrotation Zrotation
							JOINT LeftShoulder
							{
								OFFSET 8.476499 7.247704 -3.868750
								CHANNELS 3 Xrotation Yrotation Zrotation
								JOINT LeftShoulder_split
								{
									OFFSET 8.476499 7.247704 -3.868750
									CHANNELS 3 Xrotation Yrotation Zrotation
									JOINT LeftArm
									{
										OFFSET 9.308998 -2.777710 0.208600
										CHANNELS 3 Xrotation Yrotation Zrotation
										JOINT LeftForeArm
										{
											OFFSET 29.972298 0.000000 0.000000
											CHANNELS 3 Xrotation Yrotation Zrotation
											JOINT LeftHand
											{
												OFFSET 26.026505 0.000000 0.000000
												CHANNELS 3 Xrotation Yrotation Zrotation
												End Site
												{
													OFFSET 0 0 0
												}
											}
										}
									}
								}
							}
						}
						JOINT RightShoulder_virtual
						{
							OFFSET 0.000000 0.000000 0.000000
							CHANNELS 3 Xrotation Yrotation Zrotation
							JOINT RightShoulder
							{
								OFFSET -7.570500 7.247704 -3.868750
								CHANNELS 3 Xrotation Yrotation Zrotation
								JOINT RightShoulder_split
								{
									OFFSET -7.570500 7.247704 -3.868750
									CHANNELS 3 Xrotation Yrotation Zrotation
									JOINT RightArm
									{
										OFFSET -9.308998 -2.777710 0.208500
										CHANNELS 3 Xrotation Yrotation Zrotation
										JOINT RightForeArm
										{
											OFFSET -29.972300 0.000000 0.000000
											CHANNELS 3 Xrotation Yrotation Zrotation
											JOINT RightHand
											{
												OFFSET -26.026505 0.000000 0.000000
												CHANNELS 3 Xrotation Yrotation Zrotation
												End Site
												{
													OFFSET 0 0 0
												}
											}
										}
									}
								}
							}
						}
					}
				}
			}
		}
	}
}
MOTION
Frames: 9
Frame Time: 0.03333333
-7.675117 84.573906 88.048424 0.000000 0.000000 0.000000 24.099913 8.440504 -6.341979 -31.309778 -3.866331 -3.294151 29.976317 1.989307 -6.997692 -16.812927 3.838384 9.013767 -2.109621 0.493820 1.811691 0.000000 0.000000 0.000000 25.159808 7.686884 -6.557618 -51.919335 -2.205224 -17.350262 46.623797 -1.534243 2.922973 8.809903 -1.047099 14.396512 -22.522136 2.312111 -0.778188 0.000000 0.000000 0.000000 24.450598 6.934828 -7.208626 8.223513 0.952385 -2.525068 0.301167 2.505205 -0.361027 0.666083 0.811312 -0.349649 0.000000 0.000000 0.000000 0.018346 2.572063 -0.470529 -13.831503 0.509772 -0.208602 -9.006429 2.997048 -2.810174 0.000000 0.000000 0.000000 -0.565903 2.820413 -0.615755 0.778860 -1.098179 -19.716420 -0.330136 1.173692 -1.813462 15.856562 -6.782900 -45.875092 2.771091 -64.164170 1.374742 0.000000 0.000000 0.000000 0.023514 2.824909 -0.691731 1.202935 3.021988 18.380954 3.941238 5.042760 -1.869732 11.599771 -12.050798 50.155701 -1.285555 68.636359 1.721897 0.000000 0.000000 0.000000 
-7.184754 84.018227 93.809143 0.000000 0.000000 0.000000 23.851014 9.781600 -6.820910 -26.293144 -6.953367 -1.836302 27.498724 2.978352 -7.270427 -20.370027 1.828077 7.330429 -1.996147 0.800102 1.699460 0.000000 0.000000 0.000000 25.065181 9.698438 -7.151831 -55.101462 1.339648 -18.171489 44.633316 -1.000923 3.712226 10.219063 -0.103846 17.537098 -17.404162 2.089690 -0.919830 0.000000 0.000000 0.000000 24.127947 8.583860 -7.583454 8.166802 0.422423 -2.367307 0.384284 2.498833 -0.299657 0.914677 0.638014 -0.082975 0.000000 0.000000 0.000000 0.101840 2.583206 -0.445635 -14.005530 0.253708 -0.043737 -9.026527 2.539745 -2.722669 0.000000 0.000000 0.000000 -0.444360 2.787965 -0.516357 0.702928 -1.054721 -19.421032 -0.303049 0.923494 -1.589147 16.532707 -7.314535 -46.135636 2.671336 -64.185419 1.288914 0.000000 0.000000 0.000000 0.162481 2.792082 -0.741166 1.206858 2.887285 17.887244 4.098330 5.341545 -1.126966 12.035156 -12.106513 49.985445 -1.512023 68.789827 1.802701 0.000000 0.000000 0.000000 
-6.796259 82.821632 99.476685 0.000000 0.000000 0.000000 23.722147 11.568715 -7.553606 -22.795476 -10.349582 0.511096 26.910093 2.493590 -7.324465 -21.272443 -0.690179 3.373629 -3.545780 0.973397 2.503716 0.000000 0.000000 0.000000 25.063406 12.168424 -7.982194 -57.300144 4.210754 -17.917999 43.377992 -0.475215 4.464090 9.212426 0.772511 19.648957 -12.398235 1.702453 -0.865423 0.000000 0.000000 0.000000 23.581997 10.333275 -8.000961 8.207012 -0.229736 -2.381793 0.508124 2.494521 -0.259388 1.114831 0.668661 0.258577 0.000000 0.000000 0.000000 0.174089 2.571119 -0.435111 -13.947799 0.000493 0.262963 -9.090437 2.036555 -2.623895 0.000000 0.000000 0.000000 -0.308187 2.751401 -0.455818 0.633137 -0.975411 -18.912104 -0.191423 0.460377 -1.168638 17.141258 -7.457447 -46.715400 2.460405 -64.669303 1.182331 0.000000 0.000000 0.000000 0.330591 2.738519 -0.777351 1.225156 2.771086 17.344900 4.165477 5.386090 -0.495521 12.684888 -12.079797 50.140484 -1.524089 69.117792 1.658259 0.000000 0.000000 0.000000 
-6.706502 81.470741 105.126236 0.000000 0.000000 0.000000 23.943296 13.504594 -8.457147 -19.528412 -13.133464 2.788724 27.357312 2.302992 -7.187393 -21.781287 -3.085447 -0.038507 -5.702617 0.965668 3.572835 0.000000 0.000000 0.000000 25.042923 14.923099 -8.899029 -59.022096 5.964600 -16.906822 42.039241 -0.732386 5.329863 5.590066 0.530824 18.914208 -5.256551 1.312878 -0.566784 0.000000 0.000000 0.000000 22.996728 12.084900 -8.424857 8.349230 -1.020879 -2.389616 0.677649 2.416982 -0.235549 1.186302 0.836280 0.728086 0.000000 0.000000 0.000000 0.195730 2.483296 -0.408328 -13.672061 -0.130396 0.528450 -9.293406 1.675206 -2.635756 0.000000 0.000000 0.000000 -0.136190 2.664753 -0.418096 0.586293 -0.894994 -18.310716 0.028116 -0.090359 -0.725803 17.564088 -7.217765 -47.589930 2.174643 -65.217412 1.088679 0.000000 0.000000 0.000000 0.506383 2.624997 -0.794963 1.247449 2.647021 16.848084 4.121976 5.263680 0.057502 13.617763 -11.798143 50.499820 -1.347051 69.508813 1.344131 0.000000 0.000000 0.000000 
-6.800939 80.159233 110.757500 0.000000 0.000000 0.000000 24.273965 15.321052 -9.293698 -16.022046 -14.886974 4.308803 28.449686 3.104601 -6.644558 -23.929947 -4.430584 -1.657713 -7.521109 0.926904 4.327653 0.000000 0.000000 0.000000 24.814514 17.298765 -9.723418 -60.700642 6.413863 -15.612619 40.400224 -1.470024 6.221064 1.230364 -0.284458 15.610855 2.571299 1.142246 -0.159725 0.000000 0.000000 0.000000 22.313425 13.831569 -8.834796 8.598834 -1.867528 -2.288537 0.867424 2.254189 -0.209027 1.231540 1.086448 0.948892 0.000000 0.000000 0.000000 0.153895 2.301330 -0.344455 -13.287301 -0.122228 0.592528 -9.642831 1.617972 -2.848207 0.000000 0.000000 0.000000 0.044365 2.509282 -0.377177 0.587704 -0.871437 -17.709687 0.386150 -0.539545 -0.387029 17.755099 -6.589121 -48.713128 1.793796 -65.396111 0.963718 0.000000 0.000000 0.000000 0.657824 2.447923 -0.767550 1.253226 2.491463 16.522824 4.168471 5.252809 0.337534 14.793471 -11.291571 51.029767 -1.122146 69.892861 1.020595 0.000000 0.000000 0.000000 
-6.961864 79.106369 116.336845 0.000000 0.000000 0.000000 24.629888 16.428410 -9.810528 -12.595588 -15.615976 4.985022 30.230837 4.889792 -5.930518 -28.095164 -4.280474 -1.663562 -8.185710 1.071264 3.991511 0.000000 0.000000 0.000000 24.343146 18.656786 -10.176633 -62.272884 5.344482 -14.595665 38.827904 -2.442266 7.113254 -1.124612 -1.132890 11.446766 7.363546 1.143503 0.221661 0.000000 0.000000 0.000000 21.813852 15.131374 -9.230640 8.916338 -2.693381 -2.059975 1.054446 2.018444 -0.166341 1.246888 1.174004 0.876232 0.000000 0.000000 0.000000 0.065080 2.030799 -0.238812 -12.878172 0.011624 0.454294 -10.037564 1.939993 -3.246911 0.000000 0.000000 0.000000 0.232024 2.266700 -0.309668 0.633822 -0.961459 -17.157468 0.830924 -0.700279 -0.276951 17.785340 -5.632693 -50.018903 1.364206 -64.980999 0.815878 0.000000 0.000000 0.000000 0.787573 2.215225 -0.662081 1.242970 2.250633 16.400514 4.056457 5.489591 0.413081 16.069767 -10.728581 51.589098 -0.967996 70.307146 0.818573 0.000000 0.000000 0.000000 
-7.105345 78.330666 121.635277 0.000000 0.000000 0.000000 24.570240 17.200271 -10.160321 -9.820023 -15.339802 5.066817 33.128788 7.229666 -5.437598 -31.823969 -3.129831 -0.767796 -9.454751 1.402008 2.620731 0.000000 0.000000 0.000000 23.441793 19.396684 -10.359913 -63.581466 3.178541 -13.823716 37.494166 -2.825502 7.806782 -0.420683 -1.929232 8.159482 8.085639 1.111690 0.509998 0.000000 0.000000 0.000000 21.401199 15.922802 -9.556204 9.243062 -3.351154 -1.739101 1.228310 1.721066 -0.099839 1.316659 0.992198 0.727013 0.000000 0.000000 0.000000 -0.048800 1.730046 -0.109291 -12.511171 0.241128 0.181844 -10.361757 2.648767 -3.758476 0.000000 0.000000 0.000000 0.352844 1.981119 -0.203505 0.703312 -1.134098 -16.670041 1.109510 -0.595381 -0.466147 17.812406 -4.416355 -51.343287 0.926205 -64.053978 0.640006 0.000000 0.000000 0.000000 0.828081 1.958312 -0.501850 1.249758 1.912468 16.487605 3.729673 6.025920 0.131397 17.217840 -10.319765 52.109631 -1.018019 70.617831 0.873543 0.000000 0.000000 0.000000 
-6.944818 77.797752 126.864586 0.000000 0.000000 0.000000 23.930112 18.086812 -10.573835 -9.127982 -15.191741 5.290127 37.865268 8.456194 -5.031186 -31.073314 -1.546769 -1.458895 -15.858852 1.739447 1.526579 0.000000 0.000000 0.000000 22.229440 19.797059 -10.608363 -63.712250 0.092869 -12.949276 36.681644 -2.445390 8.187265 1.968308 -2.497509 6.117181 5.957528 1.006466 0.767510 0.000000 0.000000 0.000000 20.952288 16.358071 -10.025842 9.604130 -3.753545 -1.299763 1.365553 1.425536 -0.015390 1.419353 0.710531 0.343438 0.000000 0.000000 0.000000 -0.145906 1.450217 0.002380 -12.228071 0.462802 -0.086268 -10.486576 3.555312 -4.269623 0.000000 0.000000 0.000000 0.369312 1.691275 -0.078789 0.774646 -1.364325 -16.256890 1.237090 -0.305072 -0.796272 17.896556 -3.065272 -52.440092 0.512997 -63.008755 0.418025 0.000000 0.000000 0.000000 0.777258 1.711428 -0.297215 1.295447 1.561566 16.799895 3.212157 6.526708 -0.335740 18.082007 -10.142406 52.515357 -1.205324 70.627120 1.137561 0.000000 0.000000 0.000000 
-6.471525 77.556740 132.109863 0.000000 0.000000 0.000000 23.081154 19.195670 -11.431970 -10.576510 -15.784692 5.444882 43.972874 8.844853 -4.640446 -25.236256 0.210125 -3.077284 -28.179223 2.168538 0.646983 0.000000 0.000000 0.000000 21.170503 20.374758 -11.329899 -62.229867 -3.475037 -11.732612 36.618516 -1.794998 8.232944 3.927235 -2.893181 4.411250 2.977853 0.835168 1.093322 0.000000 0.000000 0.000000 20.627023 16.599498 -10.775158 9.983756 -3.834239 -0.634224 1.457288 1.159532 0.063063 1.180975 0.623216 0.031053 0.000000 0.000000 0.000000 -0.200701 1.232100 0.064079 -11.977068 0.715293 -0.209564 -10.445231 4.452022 -4.614177 0.000000 0.000000 0.000000 0.325254 1.424344 0.033210 0.836082 -1.551541 -15.914911 1.061002 0.026715 -1.260769 18.231756 -1.756753 -53.080849 0.168745 -62.337907 0.185273 0.000000 0.000000 0.000000 0.680354 1.508921 -0.102789 1.350383 1.289924 17.286457 2.613853 6.726606 -0.931726 18.554745 -10.063714 52.659847 -1.378918 70.211626 1.472512 0.000000 0.000000 0.000000 
